<svg width="90" height="91" viewBox="0 0 90 91" fill="none" xmlns="http://www.w3.org/2000/svg">
<path d="M62.5305 36.3996C62.5305 41.2265 60.6482 45.8557 57.2977 49.2688C53.9472 52.6819 49.403 54.5994 44.6646 54.5994C39.9263 54.5994 35.3821 52.6819 32.0316 49.2688C28.6811 45.8557 26.7988 41.2265 26.7988 36.3996C26.7988 31.5727 28.6811 26.9435 32.0316 23.5304C35.3821 20.1173 39.9263 18.1998 44.6646 18.1998C49.403 18.1998 53.9472 20.1173 57.2977 23.5304C60.6482 26.9435 62.5305 31.5727 62.5305 36.3996Z" fill="#666666"/>
<path fill-rule="evenodd" clip-rule="evenodd" d="M42.8423 90.9626C19.0204 89.9889 0 70.0055 0 45.4995C0 20.3701 19.9964 0 44.6646 0C69.3329 0 89.3293 20.3701 89.3293 45.4995C89.3293 70.6289 69.3329 90.999 44.6646 90.999C44.4607 91.0003 44.2567 91.0003 44.0527 90.999C43.6485 90.999 43.2443 90.9853 42.8423 90.9626ZM16.0033 74.2097C15.6694 73.2327 15.5557 72.1917 15.6708 71.1639C15.7858 70.1361 16.1266 69.1479 16.6679 68.2726C17.2092 67.3973 17.937 66.6575 18.7974 66.108C19.6578 65.5585 20.6286 65.2134 21.6378 65.0984C39.0481 63.1351 50.3884 63.3125 67.7138 65.1394C68.7244 65.2466 69.6976 65.5873 70.5594 66.1355C71.4211 66.6838 72.1487 67.4252 72.6867 68.3032C73.2247 69.1812 73.5589 70.1727 73.6638 71.2021C73.7688 72.2316 73.6418 73.2719 73.2924 74.2438C80.7178 66.5905 84.8761 56.26 84.8628 45.4995C84.8628 22.884 66.8652 4.54995 44.6646 4.54995C22.4641 4.54995 4.46646 22.884 4.46646 45.4995C4.46646 56.6833 8.86817 66.8206 16.0033 74.2097Z" fill="#666666"/>
</svg>
