<svg width="13" height="12" viewBox="0 0 13 12" fill="none" xmlns="http://www.w3.org/2000/svg">
<path d="M6.50004 10.5C6.33695 10.4998 6.1777 10.4543 6.04301 10.3695C4.04756 9.11906 3.18351 8.26172 2.70693 7.7257C1.69131 6.58313 1.20508 5.41008 1.21879 4.13977C1.23478 2.68406 2.5 1.5 4.03918 1.5C5.1584 1.5 5.93357 2.08195 6.38502 2.56664C6.39932 2.58184 6.41699 2.59403 6.43683 2.60238C6.45667 2.61073 6.47823 2.61505 6.50004 2.61505C6.52185 2.61505 6.5434 2.61073 6.56324 2.60238C6.58309 2.59403 6.60076 2.58184 6.61506 2.56664C7.0665 2.08148 7.84168 1.5 8.9609 1.5C10.5001 1.5 11.7653 2.68406 11.7813 4.14C11.795 5.41055 11.3083 6.58359 10.2931 7.72594C9.81656 8.26195 8.95252 9.1193 6.95707 10.3697C6.82234 10.4545 6.6631 10.4999 6.50004 10.5Z" fill="#F24E1E"/>
</svg>
